<svg width="20" height="20" viewBox="0 0 20 20" fill="none" xmlns="http://www.w3.org/2000/svg">
<path fill-rule="evenodd" clip-rule="evenodd" d="M19.095 0.893247C19.4245 1.22275 19.4245 1.75698 19.095 2.08649L11.1873 9.99414L19.0984 17.9052C19.4279 18.2347 19.4279 18.769 19.0984 19.0985C18.7689 19.428 18.2347 19.428 17.9051 19.0985L9.99405 11.1874L2.09125 19.0902C1.76175 19.4197 1.22751 19.4197 0.898008 19.0902C0.568503 18.7607 0.568503 18.2265 0.898008 17.897L8.8008 9.99414L0.90144 2.09478C0.571935 1.76527 0.571935 1.23104 0.90144 0.901533C1.23094 0.572028 1.76518 0.572028 2.09468 0.901533L9.99405 8.80089L17.9017 0.893247C18.2312 0.563742 18.7655 0.563742 19.095 0.893247Z" fill="#C0C4CC"/>
</svg>
