<svg width="22" height="22" viewBox="0 0 22 22" fill="none" xmlns="http://www.w3.org/2000/svg">
<path fill-rule="evenodd" clip-rule="evenodd" d="M20.1739 13.1234C20.6161 13.2706 20.8552 13.7483 20.708 14.1905C19.3236 18.3502 15.4194 21.2123 10.9657 21.2123C7.74991 21.2123 4.77866 19.7228 2.84659 17.2294C2.8032 17.1734 2.76796 17.1136 2.74069 17.0516L1.04491 18.1529C0.899452 18.2473 0.708393 18.1339 0.723499 17.9592L1.14803 13.3155C1.15938 13.1824 1.29305 13.0956 1.42125 13.1381L5.83808 14.6377C6.00253 14.693 6.03172 14.9144 5.88627 15.0089L4.13751 16.1445C4.1493 16.1575 4.16076 16.1709 4.17187 16.1848L4.18051 16.1958C5.79629 18.281 8.27737 19.5248 10.9657 19.5248C14.6502 19.5248 17.885 17.1805 19.0716 13.7615L19.1069 13.6576C19.254 13.2154 19.7318 12.9763 20.1739 13.1234ZM11.0001 0.734375C14.2159 0.734375 17.1871 2.22383 19.1192 4.7173C19.1402 4.74441 19.1593 4.7724 19.1765 4.80111L20.7739 3.64054C20.9142 3.5386 21.1109 3.64191 21.105 3.81715L20.9241 8.47666C20.9197 8.6102 20.7907 8.70388 20.6605 8.66815L16.1712 7.40172C16.0041 7.35512 15.9634 7.13557 16.1037 7.03362L17.8167 5.78908C17.8059 5.77674 17.7954 5.76401 17.7853 5.75089C16.1695 3.66561 13.6884 2.42188 11.0001 2.42188C7.27835 2.42188 4.01551 4.81378 2.85889 8.28908C2.71174 8.73123 2.23402 8.97037 1.79187 8.82322C1.34973 8.67606 1.11059 8.19834 1.25774 7.7562C2.64216 3.59643 6.54633 0.734375 11.0001 0.734375Z" fill="white"/>
</svg>
