<svg width="12" height="12" viewBox="0 0 12 12" fill="none"
  xmlns="http://www.w3.org/2000/svg">
  <g clip-path="url(#clip0_650_2408)">
    <path d="M4.0943 1.60005H7.9999C8.062 1.60005 8.12325 1.61451 8.17879 1.64228C8.23433 1.67005 8.28264 1.71037 8.3199 1.76005L8.7999 2.40005H3.4471L3.7367 1.82125C3.7699 1.75482 3.82093 1.69894 3.88409 1.65987C3.94725 1.6208 4.02004 1.60009 4.0943 1.60005ZM9.8079 2.41085L8.9599 1.28005C8.84813 1.13101 8.70319 1.01005 8.53656 0.926736C8.36993 0.843423 8.1862 0.800049 7.9999 0.800049H4.0943C3.87148 0.800056 3.65306 0.862102 3.46352 0.979236C3.27397 1.09637 3.12078 1.26397 3.0211 1.46325L2.5527 2.40005H2.3999C1.86947 2.40005 1.36076 2.61076 0.985689 2.98584C0.610616 3.36091 0.399902 3.86962 0.399902 4.40005V9.20005C0.399902 9.73048 0.610616 10.2392 0.985689 10.6143C1.36076 10.9893 1.86947 11.2 2.3999 11.2H9.5999C10.1303 11.2 10.639 10.9893 11.0141 10.6143C11.3892 10.2392 11.5999 9.73048 11.5999 9.20005V4.40005C11.5999 3.90562 11.4168 3.42871 11.0859 3.06136C10.7549 2.69402 10.2997 2.46227 9.8079 2.41085ZM2.3999 3.20005H9.5999C9.91816 3.20005 10.2234 3.32648 10.4484 3.55152C10.6735 3.77656 10.7999 4.08179 10.7999 4.40005V9.20005C10.7999 9.51831 10.6735 9.82353 10.4484 10.0486C10.2234 10.2736 9.91816 10.4 9.5999 10.4H2.3999C2.08164 10.4 1.77642 10.2736 1.55137 10.0486C1.32633 9.82353 1.1999 9.51831 1.1999 9.20005V4.40005C1.1999 4.08179 1.32633 3.77656 1.55137 3.55152C1.77642 3.32648 2.08164 3.20005 2.3999 3.20005ZM1.9999 4.40005C1.9999 4.34752 2.01025 4.29551 2.03035 4.24698C2.05045 4.19845 2.07992 4.15435 2.11706 4.11721C2.1542 4.08006 2.1983 4.0506 2.24683 4.0305C2.29536 4.0104 2.34737 4.00005 2.3999 4.00005H3.5999C3.70599 4.00005 3.80773 4.04219 3.88275 4.11721C3.95776 4.19222 3.9999 4.29396 3.9999 4.40005C3.9999 4.50614 3.95776 4.60788 3.88275 4.68289C3.80773 4.75791 3.70599 4.80005 3.5999 4.80005H2.3999C2.29382 4.80005 2.19207 4.75791 2.11706 4.68289C2.04205 4.60788 1.9999 4.50614 1.9999 4.40005ZM4.3999 7.20005C4.3999 6.7757 4.56847 6.36874 4.86853 6.06868C5.16859 5.76862 5.57556 5.60005 5.9999 5.60005C6.42425 5.60005 6.83121 5.76862 7.13127 6.06868C7.43133 6.36874 7.5999 6.7757 7.5999 7.20005C7.5999 7.62439 7.43133 8.03136 7.13127 8.33142C6.83121 8.63148 6.42425 8.80005 5.9999 8.80005C5.57556 8.80005 5.16859 8.63148 4.86853 8.33142C4.56847 8.03136 4.3999 7.62439 4.3999 7.20005ZM5.9999 4.80005C5.68473 4.80005 5.37264 4.86213 5.08146 4.98274C4.79028 5.10335 4.52571 5.28013 4.30285 5.50299C4.07999 5.72585 3.9032 5.99043 3.78259 6.28161C3.66198 6.57279 3.5999 6.88488 3.5999 7.20005C3.5999 7.51522 3.66198 7.82731 3.78259 8.11849C3.9032 8.40967 4.07999 8.67424 4.30285 8.8971C4.52571 9.11996 4.79028 9.29675 5.08146 9.41736C5.37264 9.53797 5.68473 9.60005 5.9999 9.60005C6.63642 9.60005 7.24687 9.34719 7.69696 8.8971C8.14705 8.44702 8.3999 7.83657 8.3999 7.20005C8.3999 6.56353 8.14705 5.95308 7.69696 5.50299C7.24687 5.05291 6.63642 4.80005 5.9999 4.80005Z" fill="white"/>
  </g>
  <defs>
    <clipPath id="clip0_650_2408">
      <rect width="12" height="12" fill="white"/>
    </clipPath>
  </defs>
</svg>
