<svg width="16" height="16" viewBox="0 0 16 16" fill="none"
  xmlns="http://www.w3.org/2000/svg">
  <g clip-path="url(#clip0_2282_6679)">
    <path d="M1.64662 16C1.22715 15.9988 0.825133 15.832 0.528097 15.5358C0.23106 15.2396 0.0630588 14.838 0.0606703 14.4186V8.60946C0.0601711 8.22815 0.197461 7.8595 0.447255 7.5714C0.69705 7.28331 1.04253 7.09517 1.42006 7.04163V4.6627C1.44371 3.42172 1.95183 2.23922 2.83582 1.36794C3.71981 0.496647 4.90954 0.00569076 6.15073 0L6.21417 0C7.46056 0.019076 8.64916 0.528857 9.52207 1.41873C10.395 2.30861 10.8818 3.5068 10.8769 4.75333C10.8639 4.90122 10.796 5.0389 10.6865 5.13919C10.5771 5.23948 10.434 5.29511 10.2855 5.29511C10.1371 5.29511 9.994 5.23948 9.88453 5.13919C9.77507 5.0389 9.70716 4.90122 9.6942 4.75333C9.68879 3.81354 9.31028 2.91439 8.64192 2.25369C7.97357 1.59298 7.07013 1.22484 6.13034 1.23025C5.19055 1.23565 4.2914 1.61417 3.6307 2.28252C2.96999 2.95088 2.60185 3.85432 2.60726 4.79411V7.01897H7.22918C7.38541 7.01897 7.53524 7.08104 7.64571 7.19151C7.75618 7.30198 7.81825 7.45181 7.81825 7.60804C7.81825 7.76427 7.75618 7.91411 7.64571 8.02458C7.53524 8.13505 7.38541 8.19711 7.22918 8.19711H1.65115C1.59781 8.19651 1.54489 8.2065 1.49543 8.2265C1.44598 8.2465 1.40098 8.27611 1.36306 8.31362C1.32513 8.35112 1.29501 8.39579 1.27446 8.44501C1.25391 8.49424 1.24333 8.54705 1.24334 8.6004V14.4186C1.24333 14.4719 1.25391 14.5247 1.27446 14.574C1.29501 14.6232 1.32513 14.6679 1.36306 14.7054C1.40098 14.7429 1.44598 14.7725 1.49543 14.7925C1.54489 14.8125 1.59781 14.8225 1.65115 14.8219H7.13855C7.29478 14.8219 7.44461 14.8839 7.55509 14.9944C7.66556 15.1049 7.72762 15.2547 7.72762 15.4109C7.72762 15.5672 7.66556 15.717 7.55509 15.8275C7.44461 15.9379 7.29478 16 7.13855 16H1.64662ZM11.2802 15.9502C11.0599 15.9498 10.8467 15.8727 10.6771 15.7321C10.5076 15.5915 10.3923 15.3962 10.3512 15.1798C10.3116 14.9879 10.2071 14.8156 10.0552 14.6917C9.90334 14.5679 9.71343 14.5003 9.51748 14.5001C9.42784 14.499 9.33874 14.5143 9.25467 14.5455C9.15122 14.5815 9.04247 14.5998 8.93295 14.5998C8.76487 14.5989 8.59995 14.5541 8.45451 14.4699C8.30907 14.3856 8.18815 14.2648 8.10372 14.1195L7.65059 13.3401C7.54155 13.1489 7.50184 12.9259 7.53816 12.7088C7.57449 12.4917 7.68462 12.2937 7.84997 12.1484C7.99838 12.0122 8.09721 11.8305 8.13085 11.632C8.1645 11.4334 8.13103 11.2293 8.03575 11.0518C7.98765 10.9633 7.92305 10.8849 7.84543 10.8207C7.68155 10.6743 7.57281 10.4762 7.53735 10.2593C7.50189 10.0424 7.54186 9.81997 7.65059 9.629L8.10372 8.85415C8.21276 8.6593 8.38715 8.50924 8.59608 8.43047C8.80502 8.35171 9.03507 8.3493 9.2456 8.42368C9.42471 8.50284 9.62668 8.51333 9.81303 8.45317C9.99938 8.393 10.1571 8.26638 10.2561 8.09742C10.3071 8.00741 10.3424 7.90933 10.3603 7.80742C10.4024 7.59066 10.5185 7.39528 10.6888 7.25474C10.8591 7.1142 11.073 7.03726 11.2937 7.0371H12.1774C12.4002 7.0366 12.6162 7.11435 12.7876 7.25678C12.959 7.39921 13.075 7.59729 13.1153 7.81648C13.1494 8.00166 13.2475 8.16896 13.3924 8.28908C13.5374 8.4092 13.72 8.47449 13.9083 8.47352C14.0098 8.47528 14.1109 8.45996 14.2074 8.42821C14.31 8.38862 14.4191 8.36864 14.5291 8.3693C14.6972 8.37023 14.8621 8.41503 15.0075 8.49928C15.153 8.58352 15.2739 8.70429 15.3583 8.84962L15.8114 9.629C15.9215 9.81882 15.9623 10.041 15.9268 10.2575C15.8912 10.4741 15.7816 10.6715 15.6166 10.8162C15.4653 10.9524 15.3643 11.1355 15.3298 11.336C15.2953 11.5366 15.3293 11.7429 15.4263 11.9218C15.4727 12.0076 15.5341 12.0843 15.6075 12.1484C15.7725 12.2949 15.8827 12.4932 15.9197 12.7107C15.9568 12.9282 15.9186 13.1518 15.8114 13.3447L15.3583 14.124C15.2764 14.2696 15.1573 14.3908 15.0132 14.4752C14.8691 14.5596 14.7052 14.6041 14.5382 14.6044C14.4335 14.6037 14.3296 14.5868 14.23 14.5545C14.1388 14.5204 14.042 14.5035 13.9446 14.5047C13.7962 14.5009 13.6495 14.5362 13.5191 14.607C13.3887 14.6778 13.2791 14.7816 13.2014 14.908C13.1497 14.9911 13.1143 15.0834 13.0972 15.1798C13.0561 15.3962 12.9409 15.5915 12.7713 15.7321C12.6018 15.8727 12.3885 15.9498 12.1683 15.9502H11.2802ZM9.49483 13.2767C9.91349 13.2775 10.3222 13.4047 10.6674 13.6416C11.0126 13.8785 11.2783 14.214 11.4297 14.6044C11.448 14.6533 11.4808 14.6956 11.5237 14.7255C11.5666 14.7555 11.6175 14.7717 11.6698 14.772H11.7831C11.8353 14.7711 11.886 14.7546 11.9287 14.7247C11.9715 14.6949 12.0044 14.653 12.0233 14.6044C12.0609 14.5064 12.108 14.4123 12.1638 14.3234C12.3743 13.967 12.685 13.6803 13.0573 13.499C13.4295 13.3177 13.8467 13.2499 14.2572 13.3039C14.3072 13.3092 14.3577 13.3001 14.4027 13.2776C14.4477 13.2551 14.4852 13.2202 14.511 13.177L14.5744 13.0683C14.6009 13.0239 14.6137 12.9728 14.6113 12.9212C14.6089 12.8696 14.5913 12.8199 14.5608 12.7782C14.4936 12.6933 14.4344 12.6023 14.3841 12.5064C14.1776 12.14 14.0843 11.7208 14.1157 11.3015C14.1472 10.8822 14.302 10.4815 14.5608 10.1501C14.5934 10.1098 14.6134 10.0608 14.6183 10.0092C14.6231 9.95761 14.6126 9.90573 14.588 9.8601L14.5246 9.75135C14.5019 9.71123 14.469 9.6779 14.4292 9.65479C14.3893 9.63169 14.344 9.61965 14.298 9.61994C14.19 9.63637 14.081 9.64545 13.9717 9.64713H13.9264C13.5181 9.64973 13.1186 9.52861 12.7805 9.2997C12.4424 9.07079 12.1816 8.74483 12.0324 8.36477C12.0137 8.31564 11.9809 8.2731 11.9382 8.24248C11.8955 8.21185 11.8447 8.1945 11.7922 8.19258H11.6834C11.6306 8.19327 11.5792 8.21014 11.5363 8.24094C11.4934 8.27173 11.4609 8.31495 11.4433 8.36477C11.4035 8.4595 11.3581 8.5518 11.3073 8.64118C11.1318 8.94614 10.8799 9.20011 10.5764 9.3781C10.2729 9.55608 9.92822 9.65192 9.57639 9.65619C9.45782 9.6572 9.33944 9.64658 9.22295 9.62447C9.17374 9.62055 9.12441 9.63033 9.08042 9.65272C9.03644 9.67512 8.99951 9.70925 8.97373 9.75135L8.91029 9.8601C8.88572 9.90573 8.8752 9.95761 8.88003 10.0092C8.88487 10.0608 8.90486 10.1098 8.93748 10.1501C9.0006 10.2338 9.05812 10.3216 9.10966 10.4129C9.32046 10.7795 9.41631 11.201 9.3848 11.6227C9.35329 12.0445 9.19588 12.447 8.93295 12.7782C8.90197 12.8185 8.88334 12.867 8.87932 12.9176C8.8753 12.9683 8.88606 13.019 8.91029 13.0637L8.97373 13.1725C8.99635 13.2126 9.02928 13.2459 9.06912 13.269C9.10895 13.2921 9.15424 13.3042 9.20029 13.3039C9.3083 13.2874 9.4173 13.2784 9.52654 13.2767H9.49483ZM11.7288 13.032C11.4726 13.0301 11.2207 12.9658 10.995 12.8447C10.7692 12.7235 10.5764 12.5492 10.4332 12.3368C10.2899 12.1244 10.2006 11.8803 10.1729 11.6256C10.1452 11.3709 10.18 11.1133 10.2742 10.8751C10.3735 10.6354 10.5305 10.4239 10.7311 10.2594C10.9317 10.0949 11.1698 9.98242 11.4243 9.93196C11.6788 9.8815 11.9418 9.89462 12.19 9.97014C12.4382 10.0457 12.664 10.1813 12.8472 10.3649C13.0305 10.5486 13.1656 10.7746 13.2406 11.023C13.3156 11.2714 13.3281 11.5344 13.2771 11.7888C13.2261 12.0432 13.1131 12.2811 12.9481 12.4813C12.7831 12.6816 12.5713 12.8381 12.3314 12.9368C12.14 13.0146 11.9354 13.0546 11.7288 13.0547V13.032ZM11.7288 11.0609C11.6633 11.0602 11.5987 11.0758 11.5407 11.1064C11.4828 11.1369 11.4334 11.1814 11.397 11.2358C11.3606 11.2902 11.3383 11.3528 11.3321 11.418C11.3259 11.4832 11.3361 11.5489 11.3617 11.6092C11.3868 11.6697 11.4265 11.7232 11.4772 11.7647C11.5279 11.8063 11.588 11.8347 11.6523 11.8475C11.7166 11.8603 11.7831 11.857 11.8458 11.838C11.9086 11.8189 11.9657 11.7847 12.012 11.7384C12.0584 11.692 12.0926 11.6349 12.1116 11.5722C12.1307 11.5095 12.1339 11.443 12.1212 11.3787C12.1084 11.3144 12.08 11.2542 12.0384 11.2035C11.9968 11.1529 11.9434 11.1132 11.8828 11.0881C11.8334 11.0702 11.7813 11.061 11.7288 11.0609Z" fill="#1B293D"/>
  </g>
  <defs>
    <clipPath id="clip0_2282_6679">
      <rect width="16" height="16" fill="white"/>
    </clipPath>
  </defs>
</svg>
