<svg width="16" height="16" viewBox="0 0 16 16" fill="none"
  xmlns="http://www.w3.org/2000/svg">
  <path fill-rule="evenodd" clip-rule="evenodd" d="M2.33302 1.33337C1.96483 1.33337 1.66635 1.63185 1.66635 2.00004L1.66635 14C1.66635 14.3682 1.96483 14.6667 2.33302 14.6667L2.34911 14.6665L2.367 14.6667L9.03367 14.6667C9.40186 14.6667 9.70034 14.3683 9.70034 14.0001C9.70034 13.9264 9.6884 13.8556 9.66635 13.7894L9.66635 12C9.66635 11.6318 9.36787 11.3334 8.99968 11.3334C8.63149 11.3334 8.33302 11.6318 8.33302 12L8.33302 13.3334L2.99969 13.3334L2.99969 2.6667L8.33302 2.6667L8.33302 4.00004C8.33302 4.36823 8.63149 4.6667 8.99968 4.6667C9.36787 4.6667 9.66635 4.36823 9.66635 4.00004L9.66635 2.00004C9.66635 1.63185 9.36787 1.33337 8.99968 1.33337L2.33302 1.33337ZM14.7685 7.49522C14.9101 7.61747 14.9997 7.79829 14.9997 8.00004C14.9997 8.20179 14.9101 8.3826 14.7685 8.50485C14.7363 8.57565 14.6911 8.64197 14.6328 8.70021L11.8044 11.5286C11.5441 11.789 11.122 11.789 10.8616 11.5286C10.6013 11.2683 10.6013 10.8462 10.8616 10.5858L12.7807 8.66671L5.33302 8.6667C4.96483 8.6667 4.66635 8.36823 4.66635 8.00004C4.66635 7.63185 4.96483 7.33337 5.33302 7.33337L12.7807 7.33337L10.8616 5.41425C10.6013 5.1539 10.6013 4.73179 10.8616 4.47144C11.122 4.21109 11.5441 4.21109 11.8044 4.47144L14.6328 7.29987C14.6911 7.3581 14.7363 7.42443 14.7685 7.49522Z" fill="#303030"/>
</svg>
