<svg width="32" height="32" viewBox="0 0 32 32" fill="none" xmlns="http://www.w3.org/2000/svg">
  <circle cx="16" cy="16" r="15.5" fill="white" stroke="#C6D5E3"/>
  <path d="M20.2349 20.179L16.7068 23.7072C16.3164 24.0976 15.6838 24.0976 15.2934 23.7072L11.7668 20.179C11.7418 20.154 11.7418 20.115 11.7668 20.09L12.7382 19.1186C12.7632 19.0936 12.8023 19.0936 12.8273 19.1186L15.145 21.4363C15.184 21.4753 15.2512 21.4472 15.2512 21.3926V8.06247C15.2512 8.02811 15.2793 8 15.3137 8H16.6881C16.7224 8 16.7505 8.02811 16.7505 8.06247V21.3926C16.7505 21.4488 16.8177 21.4753 16.8567 21.4363L19.1745 19.1186C19.1995 19.0936 19.2385 19.0936 19.2635 19.1186L20.2349 20.09C20.2599 20.115 20.2599 20.154 20.2349 20.179Z" fill="#006AFF"/>
</svg>
