<svg width="16" height="16" viewBox="0 0 16 16" fill="none" xmlns="http://www.w3.org/2000/svg">
  <mask id="mask0_970_2913" style="mask-type:luminance" maskUnits="userSpaceOnUse" x="0" y="0" width="16" height="16">
    <rect width="16" height="16" fill="white"/>
  </mask>
  <g mask="url(#mask0_970_2913)">
    <path fill-rule="evenodd" clip-rule="evenodd"
      d="M14.0634 1.92891C14.2831 2.14858 14.2831 2.50474 14.0634 2.72441L8.7916 7.99618L14.0657 13.2702C14.2853 13.4899 14.2853 13.8461 14.0657 14.0657C13.846 14.2854 13.4898 14.2854 13.2702 14.0657L7.99612 8.79166L2.72758 14.0602C2.50791 14.2799 2.15176 14.2799 1.93209 14.0602C1.71242 13.8405 1.71242 13.4844 1.93209 13.2647L7.20061 7.99618L1.93437 2.72993C1.7147 2.51026 1.7147 2.15411 1.93437 1.93444C2.15404 1.71477 2.5102 1.71477 2.72987 1.93444L7.99612 7.20068L13.2679 1.92891C13.4876 1.70924 13.8437 1.70924 14.0634 1.92891Z"
      fill="currentColor"/>
  </g>
</svg>
