<svg xmlns="http://www.w3.org/2000/svg" width="16" height="16" viewBox="0 0 16 16" fill="none">
  <g clip-path="url(#clip0_2187_1753)">
    <path
      d="M14.0002 2.66667H11.9335C11.7788 1.91428 11.3694 1.23823 10.7743 0.752479C10.1793 0.266727 9.43497 0.000969683 8.66683 0L7.3335 0C6.56536 0.000969683 5.82104 0.266727 5.226 0.752479C4.63095 1.23823 4.22156 1.91428 4.06683 2.66667H2.00016C1.82335 2.66667 1.65378 2.7369 1.52876 2.86193C1.40373 2.98695 1.3335 3.15652 1.3335 3.33333C1.3335 3.51014 1.40373 3.67971 1.52876 3.80474C1.65378 3.92976 1.82335 4 2.00016 4H2.66683V12.6667C2.66789 13.5504 3.01942 14.3976 3.64431 15.0225C4.2692 15.6474 5.11643 15.9989 6.00016 16H10.0002C10.8839 15.9989 11.7311 15.6474 12.356 15.0225C12.9809 14.3976 13.3324 13.5504 13.3335 12.6667V4H14.0002C14.177 4 14.3465 3.92976 14.4716 3.80474C14.5966 3.67971 14.6668 3.51014 14.6668 3.33333C14.6668 3.15652 14.5966 2.98695 14.4716 2.86193C14.3465 2.7369 14.177 2.66667 14.0002 2.66667ZM7.3335 1.33333H8.66683C9.08035 1.33384 9.48358 1.46225 9.82124 1.70096C10.1589 1.93967 10.4144 2.27699 10.5528 2.66667H5.4475C5.58588 2.27699 5.84143 1.93967 6.17909 1.70096C6.51674 1.46225 6.91998 1.33384 7.3335 1.33333ZM12.0002 12.6667C12.0002 13.1971 11.7894 13.7058 11.4144 14.0809C11.0393 14.456 10.5306 14.6667 10.0002 14.6667H6.00016C5.46973 14.6667 4.96102 14.456 4.58595 14.0809C4.21088 13.7058 4.00016 13.1971 4.00016 12.6667V4H12.0002V12.6667Z"
      fill="#333333"
    />
    <path
      d="M6.66667 11.9996C6.84348 11.9996 7.01304 11.9293 7.13807 11.8043C7.26309 11.6793 7.33333 11.5097 7.33333 11.3329V7.33293C7.33333 7.15611 7.26309 6.98655 7.13807 6.86152C7.01304 6.7365 6.84348 6.66626 6.66667 6.66626C6.48985 6.66626 6.32029 6.7365 6.19526 6.86152C6.07024 6.98655 6 7.15611 6 7.33293V11.3329C6 11.5097 6.07024 11.6793 6.19526 11.8043C6.32029 11.9293 6.48985 11.9996 6.66667 11.9996Z"
      fill="#333333"
    />
    <path
      d="M9.33317 11.9996C9.50999 11.9996 9.67956 11.9293 9.80458 11.8043C9.92961 11.6793 9.99985 11.5097 9.99985 11.3329V7.33293C9.99985 7.15611 9.92961 6.98655 9.80458 6.86152C9.67956 6.7365 9.50999 6.66626 9.33317 6.66626C9.15636 6.66626 8.98679 6.7365 8.86177 6.86152C8.73674 6.98655 8.6665 7.15611 8.6665 7.33293V11.3329C8.6665 11.5097 8.73674 11.6793 8.86177 11.8043C8.98679 11.9293 9.15636 11.9996 9.33317 11.9996Z"
      fill="#333333"
    />
  </g>
  <defs>
    <clipPath id="clip0_2187_1753">
      <rect width="16" height="16" fill="white" />
    </clipPath>
  </defs>
</svg>