<svg width="12" height="12" viewBox="0 0 12 12" fill="none" xmlns="http://www.w3.org/2000/svg">
<g clip-path="url(#clip0_962_2540)">
<path d="M6 0C4.81331 0 3.65328 0.351894 2.66658 1.01118C1.67989 1.67047 0.910851 2.60754 0.456726 3.7039C0.00259972 4.80026 -0.11622 6.00666 0.115291 7.17054C0.346802 8.33443 0.918247 9.40353 1.75736 10.2426C2.59648 11.0818 3.66558 11.6532 4.82946 11.8847C5.99335 12.1162 7.19975 11.9974 8.2961 11.5433C9.39246 11.0892 10.3295 10.3201 10.9888 9.33342C11.6481 8.34673 12 7.18669 12 6C11.9983 4.40923 11.3656 2.88411 10.2407 1.75926C9.1159 0.634414 7.59077 0.00172054 6 0V0ZM6 11C5.0111 11 4.0444 10.7068 3.22215 10.1573C2.39991 9.60794 1.75904 8.82705 1.38061 7.91342C1.00217 6.99979 0.90315 5.99445 1.09608 5.02455C1.289 4.05464 1.76521 3.16373 2.46447 2.46447C3.16373 1.7652 4.05465 1.289 5.02455 1.09607C5.99446 0.903148 6.99979 1.00216 7.91342 1.3806C8.82705 1.75904 9.60794 2.3999 10.1574 3.22215C10.7068 4.04439 11 5.01109 11 6C10.9985 7.32564 10.4713 8.59656 9.53393 9.53393C8.59656 10.4713 7.32564 10.9985 6 11Z" fill="currentColor"/>
<path d="M5.99991 5H5.49991C5.3673 5 5.24012 5.05268 5.14635 5.14645C5.05259 5.24021 4.99991 5.36739 4.99991 5.5C4.99991 5.63261 5.05259 5.75979 5.14635 5.85355C5.24012 5.94732 5.3673 6 5.49991 6H5.99991V9C5.99991 9.13261 6.05259 9.25979 6.14635 9.35355C6.24012 9.44732 6.3673 9.5 6.49991 9.5C6.63251 9.5 6.75969 9.44732 6.85346 9.35355C6.94723 9.25979 6.9999 9.13261 6.9999 9V6C6.9999 5.73478 6.89455 5.48043 6.70701 5.29289C6.51948 5.10536 6.26512 5 5.99991 5Z" fill="currentColor"/>
<path d="M6 4C6.41421 4 6.75 3.66421 6.75 3.25C6.75 2.83579 6.41421 2.5 6 2.5C5.58579 2.5 5.25 2.83579 5.25 3.25C5.25 3.66421 5.58579 4 6 4Z" fill="currentColor"/>
</g>
<defs>
<clipPath id="clip0_962_2540">
<rect width="12" height="12" fill="white"/>
</clipPath>
</defs>
</svg>
