<svg width="80" height="80" viewBox="0 0 80 80" fill="none" xmlns="http://www.w3.org/2000/svg">
<mask id="mask0_1183_4296" style="mask-type:luminance" maskUnits="userSpaceOnUse" x="0" y="0" width="80" height="80">
<rect width="80" height="80" fill="white"/>
</mask>
<g mask="url(#mask0_1183_4296)">
<path fill-rule="evenodd" clip-rule="evenodd" d="M40 5C59.33 5 75 20.67 75 40C75 59.33 59.33 75 40 75C20.67 75 5 59.33 5 40C5 20.67 20.67 5 40 5ZM57.9363 26.0386C56.8489 24.9513 55.0927 24.9404 53.992 26.006L53.9588 26.0386L33.2765 46.7209L23.6654 37.1098C22.578 36.0224 20.8218 36.0115 19.721 37.0771L19.6879 37.1098C18.6005 38.1971 18.5897 39.9533 19.6553 41.0541L19.6879 41.0872L31.1784 52.5777C31.8257 53.2251 32.7101 53.4909 33.5521 53.3752C34.2096 53.3418 34.8576 53.0788 35.3657 52.5862L35.3973 52.5551L57.9363 30.0161C59.0346 28.9177 59.0346 27.137 57.9363 26.0386Z" fill="#37D28C"/>
</g>
</svg>
