<svg width="16" height="16" viewBox="0 0 16 16" fill="none" xmlns="http://www.w3.org/2000/svg">
<g clip-path="url(#clip0_995_3191)">
<path d="M9.51439 0.758981L9.51438 15.2541C9.51438 15.4554 9.59434 15.6484 9.73666 15.7907C9.87898 15.9331 10.072 16.013 10.2733 16.013C10.3877 16.013 10.5006 15.9871 10.6036 15.9372C10.7066 15.8873 10.7969 15.8148 10.8678 15.7249C10.9265 15.679 10.9781 15.6248 11.021 15.5639L14.8211 10.1489C14.9364 9.98448 14.9817 9.78106 14.9473 9.58323C14.9128 9.38539 14.8014 9.20928 14.6373 9.09346C14.4733 8.97764 14.27 8.93157 14.072 8.96533C13.8741 8.99908 13.6976 9.10992 13.5812 9.27356L13.5788 9.27691L11.0327 12.9054L11.0327 0.758981C11.0327 0.557687 10.9527 0.364637 10.8104 0.2223C10.668 0.0799637 10.475 -1.95982e-07 10.2737 -2.04781e-07C10.0724 -2.1358e-07 9.87934 0.0799637 9.737 0.2223C9.59467 0.364637 9.5147 0.557687 9.5147 0.758981L9.51439 0.758981ZM6.48467 15.2541L6.48467 0.758981C6.48467 0.557708 6.40472 0.364678 6.2624 0.222357C6.12007 0.0800348 5.92704 7.9269e-05 5.72577 7.92566e-05C5.61137 2.55805e-05 5.49845 0.0259223 5.39551 0.0758203C5.29257 0.125718 5.20229 0.198317 5.13146 0.288153C5.07266 0.334056 5.02095 0.38839 4.97802 0.449398L1.17794 5.86416C1.06228 6.02867 1.01672 6.23239 1.05126 6.4305C1.0858 6.6286 1.19762 6.80487 1.36212 6.92054L1.36324 6.92054C1.52781 7.03632 1.73162 7.08201 1.92986 7.04756C2.12811 7.01311 2.30456 6.90134 2.42041 6.73683L4.96687 3.10771L4.96687 15.2541C4.9669 15.4554 5.04686 15.6484 5.18918 15.7907C5.3315 15.933 5.52451 16.0129 5.72577 16.0129C5.92703 16.0129 6.12004 15.933 6.26236 15.7907C6.40468 15.6484 6.48465 15.4554 6.48467 15.2541Z" fill="currentColor"/>
</g>
<defs>
<clipPath id="clip0_995_3191">
<rect width="16" height="16" fill="white" transform="translate(16) rotate(90)"/>
</clipPath>
</defs>
</svg>
