<svg width="16" height="16" viewBox="0 0 16 16" fill="none"
  xmlns="http://www.w3.org/2000/svg">
  <g clip-path="url(#clip0_1738_5835)">
    <path d="M14.6414 8.58333C14.5128 10.1032 13.8685 11.5335 12.8153 12.6368C11.7621 13.7401 10.3634 14.4502 8.85109 14.6493C7.33883 14.8483 5.80396 14.5244 4.50113 13.7311C3.19831 12.9379 2.20584 11.7231 1.68838 10.2882C1.17092 8.85338 1.15958 7.28474 1.65623 5.84255C2.15289 4.40037 3.12769 3.17133 4.41891 2.35934C5.71013 1.54735 7.24015 1.20123 8.75514 1.37839C10.2701 1.55555 11.679 2.24534 12.748 3.33333H10.6667C10.4899 3.33333 10.3203 3.40357 10.1953 3.5286C10.0703 3.65362 10 3.82319 10 4C10 4.17681 10.0703 4.34638 10.1953 4.4714C10.3203 4.59643 10.4899 4.66667 10.6667 4.66667H13.4287C13.757 4.66649 14.0718 4.536 14.3039 4.30387C14.5361 4.07174 14.6665 3.75695 14.6667 3.42867V0.666667C14.6667 0.489856 14.5965 0.320286 14.4715 0.195262C14.3464 0.0702379 14.1769 0 14 0V0C13.8232 0 13.6537 0.0702379 13.5286 0.195262C13.4036 0.320286 13.3334 0.489856 13.3334 0.666667V2.052C11.9925 0.853819 10.2866 0.142989 8.4917 0.0344742C6.69675 -0.0740408 4.91768 0.426105 3.44222 1.45402C1.96675 2.48194 0.881175 3.97752 0.361055 5.69888C-0.159065 7.42024 -0.0833125 9.26672 0.57606 10.9397C1.23543 12.6127 2.43987 14.0143 3.99457 14.9179C5.54928 15.8215 7.36334 16.1742 9.14336 15.9191C10.9234 15.6639 12.5653 14.8157 13.8035 13.5117C15.0417 12.2077 15.8039 10.5242 15.9667 8.73333C15.9753 8.6405 15.9645 8.54688 15.9349 8.45846C15.9054 8.37003 15.8577 8.28873 15.795 8.21974C15.7323 8.15075 15.6559 8.09558 15.5707 8.05775C15.4854 8.01992 15.3933 8.00025 15.3 8C15.1374 7.99804 14.9799 8.05669 14.8581 8.16452C14.7364 8.27236 14.6591 8.42165 14.6414 8.58333Z" fill="white"/>
  </g>
  <defs>
    <clipPath id="clip0_1738_5835">
      <rect width="16" height="16" fill="white"/>
    </clipPath>
  </defs>
</svg>
