<svg width="16" height="16" viewBox="0 0 16 16" fill="none"
  xmlns="http://www.w3.org/2000/svg">
  <g clip-path="url(#clip0_1707_17430)">
    <path d="M15.3588 5.92272C13.7398 3.42488 10.9758 1.9057 7.99931 1.87777C5.02283 1.9057 2.25883 3.42488 0.639877 5.92272C-0.213292 7.1748 -0.213292 8.82146 0.639877 10.0736C2.25791 12.573 5.02208 14.0937 7.99934 14.1225C10.9758 14.0946 13.7398 12.5754 15.3588 10.0776C16.2138 8.82457 16.2138 7.17571 15.3588 5.92272ZM13.7022 8.93834C12.4662 10.8988 10.3169 12.0949 7.99931 12.1121C5.68177 12.095 3.53249 10.8988 2.29643 8.93834C1.91109 8.37222 1.91109 7.62806 2.29643 7.06197C3.53245 5.10147 5.68174 3.90537 7.99931 3.88819C10.3168 3.90534 12.4661 5.10147 13.7022 7.06197C14.0875 7.62806 14.0875 8.37222 13.7022 8.93834Z" fill="#90A4BA"/>
    <path d="M7.9989 10.6806C9.47932 10.6806 10.6794 9.48045 10.6794 8.00003C10.6794 6.51961 9.47932 5.31949 7.9989 5.31949C6.51848 5.31949 5.31836 6.51961 5.31836 8.00003C5.31836 9.48045 6.51848 10.6806 7.9989 10.6806Z" fill="#90A4BA"/>
  </g>
  <defs>
    <clipPath id="clip0_1707_17430">
      <rect width="16" height="16" fill="white"/>
    </clipPath>
  </defs>
</svg>
