<svg width="16" height="16" viewBox="0 0 16 16" fill="none"
  xmlns="http://www.w3.org/2000/svg">
  <g clip-path="url(#clip0_1707_17387)">
    <path d="M15.3599 5.91294C14.8413 5.15802 14.224 4.47595 13.5243 3.88498L15.4121 1.99776C15.7934 1.59414 15.7752 0.957905 15.3716 0.57669C14.9838 0.210365 14.3773 0.210805 13.99 0.577664L11.8146 2.75371C10.6304 2.16196 9.32313 1.8584 7.99932 1.86773C5.02261 1.89622 2.25848 3.4153 0.638782 5.91294C-0.212927 7.16557 -0.212927 8.81137 0.638782 10.064C1.15734 10.8189 1.7747 11.501 2.47439 12.092L0.586509 13.9812C0.193796 14.3739 0.193796 15.0106 0.586509 15.4033C0.979221 15.796 1.61593 15.796 2.00861 15.4033L4.184 13.2272C5.36823 13.819 6.67552 14.1226 7.99932 14.1132C10.976 14.0848 13.7402 12.5657 15.3599 10.068C16.2134 8.81451 16.2134 7.16648 15.3599 5.91294ZM2.29681 8.92874C1.91088 8.36277 1.91088 7.61822 2.29681 7.05225C3.53259 5.09168 5.68181 3.89544 7.99932 3.87829C8.78032 3.87449 9.55569 4.0107 10.2887 4.2804L9.04615 5.52224C7.68336 4.94371 6.10959 5.57951 5.53109 6.9423C5.24691 7.61171 5.24691 8.36789 5.53109 9.03731L3.89788 10.6712C3.28175 10.1719 2.74233 9.5848 2.29681 8.92874ZM13.7018 8.92874C12.466 10.8893 10.3168 12.0855 7.99932 12.1027C7.21833 12.1065 6.44296 11.9703 5.70999 11.7006L6.9525 10.4581C8.31529 11.0366 9.88906 10.4008 10.4676 9.03803C10.7517 8.36862 10.7517 7.61244 10.4676 6.94303L12.1008 5.30982C12.7169 5.80915 13.2563 6.39623 13.7018 7.05229C14.0878 7.61822 14.0878 8.36277 13.7018 8.92874Z" fill="#90A4BA"/>
  </g>
  <defs>
    <clipPath id="clip0_1707_17387">
      <rect width="16" height="16" fill="white"/>
    </clipPath>
  </defs>
</svg>
