<svg xmlns="http://www.w3.org/2000/svg" width="12" height="12" viewBox="0 0 12 12" fill="none">
  <path d="M0 5.63636H5.65559V0H0V5.63636ZM1.4139 1.41818H4.24169V4.25454H1.4139V1.41818ZM6.34441 0V5.67273H12V0H6.34441ZM10.5861 4.21818H7.75831V1.41818H10.5861V4.21818ZM2.13897 3.52727H3.55287V2.10909H2.13897V3.52727ZM0 12H5.65559V6.36364H0V12ZM1.4139 7.78182H4.24169V10.6182H1.4139V7.78182ZM9.89728 2.10909H8.48338V3.52727H9.89728V2.10909ZM6.34441 12H7.75831V10.5818H6.34441V12ZM7.75831 7.78182V10.6182H9.1722V7.78182H7.75831ZM10.5861 10.5818H9.1722V12H12V9.16364H10.5861V10.5818ZM10.5861 7.78182H12V6.36364H10.5861V7.78182ZM6.34441 6.36364V7.78182H7.75831V6.36364H6.34441ZM2.13897 9.89091H3.55287V8.47273H2.13897V9.89091Z" fill="currentColor" />
</svg>
