<svg xmlns="http://www.w3.org/2000/svg" width="80" height="80" viewBox="0 0 80 80" fill="none">  <g clip-path="url(#clip0_641_13715)">    <path d="M0 0H80V80H0V0Z" fill="white"/>    <path d="M6.66675 58.2833C6.66675 60.4934 10.1786 62.613 16.4299 64.1758C22.6811 65.7386 31.1595 66.6166 40.0001 66.6166C48.8406 66.6166 57.3191 65.7386 63.5703 64.1758C69.8215 62.613 73.3334 60.4934 73.3334 58.2833C73.3334 57.1889 72.4712 56.1053 70.7961 55.0943C69.1209 54.0832 66.6656 53.1645 63.5703 52.3907C60.475 51.6169 56.8004 51.0031 52.7562 50.5843C48.712 50.1655 44.3775 49.95 40.0001 49.95C35.6227 49.95 31.2882 50.1655 27.244 50.5843C23.1998 51.0031 19.5251 51.6169 16.4299 52.3907C13.3346 53.1645 10.8793 54.0832 9.2041 55.0943C7.52894 56.1053 6.66675 57.1889 6.66675 58.2833Z" fill="#1083FE" fill-opacity="0.5"/>    <path d="M13.3332 30.1334C12.9165 30.1334 12.5499 29.8167 12.4999 29.3834C12.4499 28.9334 12.7999 28.5168 13.2499 28.4834L15.3832 28.2834C15.6017 28.2649 15.8188 28.3332 15.9872 28.4736C16.1557 28.614 16.2621 28.8151 16.2832 29.0334C16.3332 29.4834 15.9832 29.9001 15.5332 29.9334L13.3999 30.1334H13.3165H13.3332ZM16.7499 26.6668C16.5499 26.6668 16.3499 26.6001 16.1832 26.4501C15.1999 25.5334 14.1165 24.7334 12.9999 24.0501C12.9043 23.9945 12.8209 23.9203 12.7547 23.8319C12.6884 23.7434 12.6406 23.6425 12.6142 23.5352C12.5877 23.4279 12.5832 23.3163 12.6008 23.2072C12.6184 23.0981 12.6577 22.9937 12.7165 22.9001C12.9499 22.5001 13.4665 22.3834 13.8499 22.6001C15.0832 23.3334 16.2499 24.2001 17.3332 25.2001C17.6665 25.5167 17.6832 26.0334 17.3832 26.3834C17.2165 26.5668 16.9999 26.6501 16.7665 26.6501L16.7499 26.6668ZM66.6665 30.1334H66.5832L64.4499 29.9334C64.3413 29.9242 64.2356 29.8936 64.139 29.8432C64.0423 29.7929 63.9566 29.7238 63.8869 29.6401C63.8171 29.5564 63.7646 29.4597 63.7325 29.3555C63.7004 29.2514 63.6893 29.1419 63.6999 29.0334C63.7499 28.5668 64.1832 28.2334 64.5999 28.2834L66.7332 28.4834C66.9515 28.5046 67.1527 28.6109 67.2931 28.7794C67.4335 28.9479 67.5018 29.1649 67.4832 29.3834C67.4499 29.8167 67.0832 30.1334 66.6499 30.1334H66.6665ZM63.2499 26.6668C63.0812 26.668 62.916 26.618 62.7763 26.5234C62.6366 26.4287 62.5289 26.2939 62.4675 26.1368C62.4061 25.9796 62.3938 25.8075 62.4324 25.6432C62.4709 25.479 62.5583 25.3302 62.6832 25.2168C63.7429 24.2219 64.9114 23.3497 66.1665 22.6168C66.5665 22.3834 67.0665 22.5168 67.2999 22.9168C67.5332 23.3168 67.3999 23.8168 67.0165 24.0668C65.8832 24.7334 64.8165 25.5501 63.8332 26.4668C63.6665 26.6168 63.4665 26.6834 63.2665 26.6834L63.2499 26.6668Z" fill="#1083FE"/>    <path d="M36.8335 20.8333C36.3668 20.8333 35.9168 20.7999 35.4668 20.7166C35.2604 20.6665 35.081 20.5392 34.9655 20.361C34.8499 20.1828 34.8069 19.9671 34.8452 19.7582C34.8836 19.5493 35.0005 19.363 35.1718 19.2375C35.3432 19.112 35.5561 19.0568 35.7668 19.0833C37.2335 19.3499 38.8002 19.0499 40.0668 18.2833H40.0835C40.0168 18.2499 39.9668 18.2166 39.9002 18.1833C39.2668 17.7666 38.8502 17.0333 38.8168 16.2499C38.7835 15.5833 39.0502 14.9666 39.5335 14.5833C39.9502 14.2499 40.5002 14.1166 41.0502 14.1999C41.6668 14.2833 42.2168 14.6166 42.5668 15.0999C42.8835 15.5333 43.0335 16.0833 43.0335 16.6499C45.5835 15.5333 47.0335 12.6499 47.8168 10.3666C47.9668 9.93328 48.4335 9.69994 48.8668 9.84994C49.3002 9.99994 49.5335 10.4666 49.3835 10.9166C48.0335 14.8499 45.9002 17.4333 43.2002 18.3833C42.8835 18.4999 42.5835 18.5666 42.2835 18.6166C41.9502 19.0333 41.5001 19.3999 40.9335 19.7499C39.7168 20.4833 38.2668 20.8833 36.8335 20.8833V20.8333ZM40.7501 15.7999C40.7501 15.7999 40.6168 15.7999 40.5668 15.8499C40.4835 15.9166 40.4668 16.0499 40.4835 16.1333C40.4835 16.3833 40.6335 16.6333 40.8168 16.7499C40.9668 16.8499 41.1335 16.8999 41.3168 16.9333C41.4168 16.5999 41.3835 16.2499 41.2335 16.0333C41.1855 15.9713 41.1252 15.9201 41.0563 15.8828C40.9875 15.8455 40.9116 15.8229 40.8335 15.8166H40.7668L40.7501 15.7999ZM49.9168 16.1999C49.5835 16.1999 49.2835 15.9999 49.1502 15.6833C48.9668 15.2499 49.1835 14.7666 49.6002 14.5999C51.0668 13.9999 52.2168 12.5999 52.5168 11.0499C52.6002 10.5999 53.0501 10.3166 53.5002 10.3999C53.9501 10.4833 54.2502 10.9333 54.1502 11.3833C53.9283 12.434 53.4565 13.4158 52.7747 14.2456C52.093 15.0753 51.2213 15.7285 50.2335 16.1499C50.1335 16.1999 50.0168 16.2166 49.9168 16.2166V16.1999Z" fill="#1083FE"/>    <path d="M60 37.25V56.7666C60 58.7333 58.5 60.3166 56.6667 60.3166H23.3333C21.5 60.3166 20 58.7333 20 56.7666V37.25C20 36.4666 20.2333 35.75 20.65 35.1666C20.6833 35.1 20.7167 35.05 20.7667 34.9833C21.3833 34.2 22.3 33.7 23.3333 33.7H31.6667V35.6166C31.6667 37.5 33.1 39.0166 34.85 39.0166H45.15C46.9 39.0166 48.3333 37.5 48.3333 35.6166V33.7H56.6667C57.7667 33.7 58.75 34.2833 59.3667 35.1666C59.7667 35.75 60 36.4666 60 37.25Z" fill="white"/>    <path d="M59.2999 35.1666C58.6833 34.2833 57.7 33.7 56.5999 33.7H48.2666V35.6166C48.2666 37.5 46.8333 39.0166 45.0833 39.0166H34.7833C33.0333 39.0166 31.6 37.5 31.6 35.6166V33.7H23.2666C22.2333 33.7 21.3166 34.2 20.7 34.9833L25.6166 26.9C26.2333 25.9666 27.2666 25.4166 28.3833 25.4166H51.4833C52.6 25.4166 53.6333 25.9666 54.25 26.9L59.2999 35.1666Z" fill="#D6E8FF"/>    <path d="M60.0666 34.7334V34.7L55.0333 26.4334C54.8 26.0834 54.5166 25.7667 54.1833 25.5167C53.7666 25.1667 53.2833 24.9167 52.7666 24.7667H52.75C52.3833 24.65 51.9833 24.5834 51.5666 24.5834H28.4666C28.0666 24.5834 27.6666 24.6334 27.2833 24.7667C26.7666 24.9 26.2666 25.1667 25.85 25.5167C25.5166 25.7667 25.2333 26.0834 24.9833 26.45L19.9666 34.7V34.7334C19.4833 35.45 19.2 36.3 19.2 37.25V56.7667C19.2 59.1834 21.0666 61.15 23.3666 61.15H56.7C59 61.15 60.8666 59.1834 60.8666 56.7667V37.25C60.8666 36.3 60.5833 35.45 60.1 34.7334H60.0666ZM57 32.8834C56.8833 32.8667 56.7833 32.8667 56.6666 32.8667H54.1666V28.2167L57 32.8834ZM27.5 26.4334C27.8 26.3167 28.1166 26.25 28.45 26.25H51.55C51.8833 26.25 52.2 26.3167 52.5 26.4334V32.8667H48.3333C47.8666 32.8667 47.5 33.2334 47.5 33.7V35.6334C47.5 37.0334 46.45 38.1834 45.1333 38.1834H34.8666C33.55 38.1834 32.5 37.0334 32.5 35.6334V33.7C32.5 33.2334 32.1333 32.8667 31.6666 32.8667H27.5V26.4334ZM25.8333 28.2334V32.8667H23.3333C23.2166 32.8667 23.1166 32.8667 23 32.8834L25.8333 28.2334ZM59.1666 56.7667C59.1666 58.2667 58.05 59.4834 56.6666 59.4834H23.3333C21.95 59.4834 20.8333 58.2667 20.8333 56.7667V37.25C20.8333 35.75 21.95 34.5334 23.3333 34.5334H30.8333V35.6334C30.8333 37.9667 32.6333 39.85 34.8666 39.85H45.1333C47.3666 39.85 49.1666 37.9667 49.1666 35.6334V34.5334H56.6666C58.05 34.5334 59.1666 35.75 59.1666 37.25V56.7667Z" fill="#1083FE"/>    <path d="M36.6667 46.6666H43.3333C44.4444 46.6666 45 47.2222 45 48.3333C45 49.4444 44.4444 50 43.3333 50H36.6667C35.5556 50 35 49.4444 35 48.3333C35 47.2222 35.5556 46.6666 36.6667 46.6666Z" fill="#D6E8FF"/>    <path d="M43.3334 50.8334H36.6667C35.2834 50.8334 34.1667 49.7167 34.1667 48.3334C34.1667 46.95 35.2834 45.8334 36.6667 45.8334H43.3334C44.7167 45.8334 45.8334 46.95 45.8334 48.3334C45.8334 49.7167 44.7167 50.8334 43.3334 50.8334ZM36.6667 47.5C36.2001 47.5 35.8334 47.8667 35.8334 48.3334C35.8334 48.8 36.2001 49.1667 36.6667 49.1667H43.3334C43.8001 49.1667 44.1667 48.8 44.1667 48.3334C44.1667 47.8667 43.8001 47.5 43.3334 47.5H36.6667Z" fill="#1083FE"/>  </g>  <defs>    <clipPath id="clip0_641_13715">      <rect width="80" height="80" fill="white"/>    </clipPath>  </defs></svg>