<svg width="16" height="16" viewBox="0 0 16 16" fill="none"
  xmlns="http://www.w3.org/2000/svg">
  <path d="M11.7266 10L4.2733 10C4.14145 9.99945 4.01272 9.95981 3.9034 9.8861C3.79408 9.81239 3.70907 9.70792 3.65912 9.5859C3.60917 9.46388 3.59652 9.32979 3.62278 9.20058C3.64904 9.07137 3.71302 8.95285 3.80663 8.86L7.52663 5.14001C7.58861 5.07752 7.66234 5.02793 7.74358 4.99408C7.82482 4.96023 7.91196 4.94281 7.99996 4.94281C8.08797 4.94281 8.17511 4.96023 8.25635 4.99408C8.33759 5.02793 8.41132 5.07752 8.4733 5.14001L12.1933 8.86C12.2869 8.95285 12.3509 9.07137 12.3771 9.20058C12.4034 9.32979 12.3908 9.46388 12.3408 9.5859C12.2909 9.70792 12.2058 9.81239 12.0965 9.8861C11.9872 9.95981 11.8585 9.99945 11.7266 10Z" fill="currentColor"/>
</svg>
