<svg xmlns="http://www.w3.org/2000/svg" width="20" height="20" viewBox="0 0 20 20" fill="none">
  <path d="M3.5 16.5001C3.78696 16.1787 5.71487 14.6646 6.67313 13.9182C7.02213 13.6463 7.45023 13.5001 7.89262 13.5001C8.96233 13.5001 11.0237 13.5001 12.0985 13.5001C12.5461 13.5001 12.9785 13.6525 13.3388 13.918C14.5761 14.8295 15.7361 15.5087 17 16.5001M5 17.9999H15C16.6569 17.9999 18 16.6567 18 14.9999V4.99988C18 3.34302 16.6569 1.99988 15 1.99988H5C3.34315 1.99988 2 3.34302 2 4.99988V14.9999C2 16.6567 3.34315 17.9999 5 17.9999ZM12.8655 7.72658C12.8655 6.20032 11.577 4.95328 10 4.95328C8.42302 4.95328 7.13454 6.20032 7.13454 7.72658C7.13454 9.25284 8.42302 10.4999 10 10.4999C11.577 10.4999 12.8655 9.25284 12.8655 7.72658Z" stroke="#6F869F" stroke-width="1.66667"/>
</svg>