<svg xmlns="http://www.w3.org/2000/svg" width="20" height="20" viewBox="0 0 20 20" fill="none">
  <path d="M4.90909 15.0166H5.87879M13.6364 11.1379H16.0606C17.1317 11.1379 18 12.0062 18 13.0773V15.9863C18 17.0574 17.1317 17.9257 16.0606 17.9257H5.87879M9.27273 5.62366L12.2536 2.64274C13.011 1.88536 14.239 1.88536 14.9964 2.64274L17.0534 4.69978C17.8108 5.45716 17.8108 6.68512 17.0534 7.4425L8.78788 15.708M3.93939 17.9257H6.84848C7.91958 17.9257 8.78788 17.0574 8.78788 15.9863V4.34998C8.78788 3.27888 7.91958 2.41059 6.84848 2.41059H3.93939C2.8683 2.41059 2 3.27888 2 4.34998V15.9863C2 17.0574 2.8683 17.9257 3.93939 17.9257Z" stroke="#6F869F" stroke-width="1.66667" stroke-linecap="round" stroke-linejoin="round"/>
</svg>