<svg xmlns="http://www.w3.org/2000/svg" width="20" height="20" viewBox="0 0 20 20" fill="none">
  <path d="M13.3545 17.1426L13.3548 14.4645C13.3549 12.9851 12.1557 11.7858 10.6764 11.7858H4.67868C3.19957 11.7858 2.00047 12.9848 2.0003 14.4639L2 17.1426M17.9998 17.1427L18 14.4646C18.0001 12.9853 16.8009 11.786 15.3216 11.786M12.8386 3.38408C13.4964 3.87211 13.9226 4.65449 13.9226 5.53644C13.9226 6.41838 13.4964 7.20076 12.8386 7.68879M10.4115 5.53629C10.4115 7.01552 9.21235 8.21467 7.73312 8.21467C6.25389 8.21467 5.05474 7.01552 5.05474 5.53629C5.05474 4.05706 6.25389 2.85791 7.73312 2.85791C9.21235 2.85791 10.4115 4.05706 10.4115 5.53629Z" stroke="#6F869F" stroke-width="1.66667" stroke-linecap="round" stroke-linejoin="round"/>
</svg>